<svg width="640" height="380" xmlns="http://www.w3.org/2000/svg">
  <defs>
    <style>
      text { font-family: 'SF Mono', 'Fira Code', 'JetBrains Mono', Menlo, Consolas, monospace; font-size: 13px; }
      .ln { fill: #3A4550; }
    </style>
  </defs>
  <rect width="640" height="380" fill="#1C1A17" rx="8"/>
  <rect width="640" height="32" fill="#252220" rx="8"/>
  <rect y="24" width="640" height="8" fill="#252220"/>
  <circle cx="16" cy="16" r="5" fill="#A83020"/>
  <circle cx="34" cy="16" r="5" fill="#E8A010"/>
  <circle cx="52" cy="16" r="5" fill="#6B8C42"/>
  <text x="280" y="20" fill="#7A9098" font-size="12" text-anchor="middle">zorn-dark</text>

  <!-- Cursor line on line 5 -->
  <rect x="0" y="129" width="640" height="18" fill="#252220"/>

  <!-- 1: # Warm colors for warm code -->
  <text x="12" y="60" class="ln">1</text>
  <text x="44" y="60" fill="#4A4238" font-style="italic"># Warm colors for warm code</text>

  <!-- 2: class Palette -->
  <text x="12" y="80" class="ln">2</text>
  <text x="44" y="80" fill="#A83020">class</text>
  <text x="84" y="80" fill="#B8870A"> Palette</text>

  <!-- 3:   VARIANTS = [:dark, :light, :blue, :plum] -->
  <text x="12" y="100" class="ln">3</text>
  <text x="60" y="100" fill="#E06848">VARIANTS</text>
  <text x="124" y="100" fill="#E8B0A0"> = </text>
  <text x="148" y="100" fill="#7A9098">[</text>
  <text x="156" y="100" fill="#B8870A">:dark</text>
  <text x="196" y="100" fill="#7A9098">, </text>
  <text x="212" y="100" fill="#B8870A">:light</text>
  <text x="260" y="100" fill="#7A9098">, </text>
  <text x="276" y="100" fill="#B8870A">:blue</text>
  <text x="316" y="100" fill="#7A9098">, </text>
  <text x="332" y="100" fill="#B8870A">:plum</text>
  <text x="372" y="100" fill="#7A9098">]</text>

  <!-- 4: (blank) -->
  <text x="12" y="120" class="ln">4</text>

  <!-- 5: def initialize(variant = :dark) -->
  <text x="12" y="140" style="fill:#E8A010">5</text>
  <text x="60" y="140" fill="#A83020">def</text>
  <text x="84" y="140" fill="#E8A010"> initialize</text>
  <text x="164" y="140" fill="#7A9098">(</text>
  <text x="172" y="140" fill="#EED090" font-style="italic">variant</text>
  <text x="228" y="140" fill="#E8B0A0"> = </text>
  <text x="252" y="140" fill="#B8870A">:dark</text>
  <text x="292" y="140" fill="#7A9098">)</text>

  <!-- 6: @variant = variant -->
  <text x="12" y="160" class="ln">6</text>
  <text x="76" y="160" fill="#E06848" font-style="italic">@variant</text>
  <text x="140" y="160" fill="#E8B0A0"> = </text>
  <text x="164" y="160" fill="#EEE0B8">variant</text>

  <!-- 7: @colors = load_colors(variant) -->
  <text x="12" y="180" class="ln">7</text>
  <text x="76" y="180" fill="#E06848" font-style="italic">@colors</text>
  <text x="132" y="180" fill="#E8B0A0"> = </text>
  <text x="156" y="180" fill="#587890">load_colors</text>
  <text x="244" y="180" fill="#7A9098">(</text>
  <text x="252" y="180" fill="#EEE0B8">variant</text>
  <text x="308" y="180" fill="#7A9098">)</text>

  <!-- 8: end -->
  <text x="12" y="200" class="ln">8</text>
  <text x="60" y="200" fill="#A83020">end</text>

  <!-- 9: (blank) -->
  <text x="12" y="220" class="ln">9</text>

  <!-- 10: def apply -->
  <text x="12" y="240" class="ln">10</text>
  <text x="60" y="240" fill="#A83020">def</text>
  <text x="84" y="240" fill="#E8A010"> apply</text>

  <!-- 11: return unless VARIANTS.include?(@variant) -->
  <text x="12" y="260" class="ln">11</text>
  <text x="76" y="260" fill="#CC3018">return</text>
  <text x="124" y="260" fill="#A83020"> unless</text>
  <text x="176" y="260" fill="#E06848"> VARIANTS</text>
  <text x="244" y="260" fill="#7A9098">.</text>
  <text x="252" y="260" fill="#587890">include?</text>
  <text x="316" y="260" fill="#7A9098">(</text>
  <text x="324" y="260" fill="#E06848" font-style="italic">@variant</text>
  <text x="388" y="260" fill="#7A9098">)</text>

  <!-- 12: @colors.each { |k, v| set(k, v) } -->
  <text x="12" y="280" class="ln">12</text>
  <text x="76" y="280" fill="#E06848" font-style="italic">@colors</text>
  <text x="132" y="280" fill="#7A9098">.</text>
  <text x="140" y="280" fill="#587890">each</text>
  <text x="172" y="280" fill="#7A9098"> { |</text>
  <text x="200" y="280" fill="#EED090" font-style="italic">k</text>
  <text x="208" y="280" fill="#7A9098">,</text>
  <text x="216" y="280" fill="#EED090" font-style="italic"> v</text>
  <text x="228" y="280" fill="#7A9098">| </text>
  <text x="244" y="280" fill="#587890">set</text>
  <text x="268" y="280" fill="#7A9098">(</text>
  <text x="276" y="280" fill="#EEE0B8">k</text>
  <text x="284" y="280" fill="#7A9098">,</text>
  <text x="292" y="280" fill="#EEE0B8"> v</text>
  <text x="304" y="280" fill="#7A9098">) }</text>

  <!-- 13: end -->
  <text x="12" y="300" class="ln">13</text>
  <text x="60" y="300" fill="#A83020">end</text>

  <!-- 14: end -->
  <text x="12" y="320" class="ln">14</text>
  <text x="44" y="320" fill="#A83020">end</text>
</svg>
