<svg width="640" height="360" xmlns="http://www.w3.org/2000/svg">
  <defs>
    <style>
      text { font-family: 'SF Mono', 'Fira Code', 'JetBrains Mono', Menlo, Consolas, monospace; font-size: 13px; }
      .line-nr { fill: #8A9AA8; }
    </style>
  </defs>
  <!-- Background -->
  <rect width="640" height="360" fill="#F0EDE6" rx="8"/>
  <!-- Title bar -->
  <rect width="640" height="32" fill="#E4DED6" rx="8"/>
  <rect y="24" width="640" height="8" fill="#E4DED6"/>
  <circle cx="16" cy="16" r="5" fill="#962818"/>
  <circle cx="34" cy="16" r="5" fill="#B87800"/>
  <circle cx="52" cy="16" r="5" fill="#4A6B28"/>
  <text x="280" y="20" fill="#6A7870" font-size="12" text-anchor="middle">zorn-light</text>
  <!-- Gutter -->
  <rect x="0" y="32" width="36" height="328" fill="#F0EDE6"/>
  <!-- Code -->
  <text x="12" y="60" class="line-nr">1</text>
  <text x="44" y="60" fill="#8A8880" font-style="italic">-- A warm, earthy palette</text>

  <text x="12" y="80" class="line-nr">2</text>
  <text x="44" y="80" fill="#962818">local</text>
  <text x="82" y="80" fill="#2A2218"> M </text>
  <text x="106" y="80" fill="#A06858">=</text>
  <text x="118" y="80" fill="#6A7870">{}</text>

  <text x="12" y="100" class="line-nr">3</text>

  <text x="12" y="120" class="line-nr">4</text>
  <text x="44" y="120" fill="#962818">function</text>
  <text x="112" y="120" fill="#B87800"> M.setup</text>
  <text x="188" y="120" fill="#6A7870">(</text>
  <text x="196" y="120" fill="#8A7040" font-style="italic">opts</text>
  <text x="224" y="120" fill="#6A7870">)</text>

  <text x="12" y="140" class="line-nr">5</text>
  <text x="60" y="140" fill="#962818">local</text>
  <text x="98" y="140" fill="#2A2218"> colors </text>
  <text x="158" y="140" fill="#A06858">=</text>
  <text x="170" y="140" fill="#5A7888">require</text>
  <text x="220" y="140" fill="#6A7870">(</text>
  <text x="228" y="140" fill="#7A5800">"zorn.palette"</text>
  <text x="336" y="140" fill="#6A7870">)</text>

  <text x="12" y="160" class="line-nr">6</text>
  <text x="60" y="160" fill="#962818">local</text>
  <text x="98" y="160" fill="#2A2218"> variant </text>
  <text x="166" y="160" fill="#A06858">=</text>
  <text x="178" y="160" fill="#2A2218">opts</text>
  <text x="206" y="160" fill="#6A7870">.</text>
  <text x="214" y="160" fill="#2A2218">variant</text>
  <text x="270" y="160" fill="#A06858"> or</text>
  <text x="296" y="160" fill="#7A5800"> "dark"</text>

  <text x="12" y="180" class="line-nr">7</text>

  <text x="12" y="200" class="line-nr">8</text>
  <text x="60" y="200" fill="#962818">if</text>
  <text x="76" y="200" fill="#2A2218"> variant </text>
  <text x="144" y="200" fill="#A06858">==</text>
  <text x="166" y="200" fill="#7A5800"> "dark"</text>
  <text x="218" y="200" fill="#962818"> then</text>

  <text x="12" y="220" class="line-nr">9</text>
  <text x="76" y="220" fill="#5A7888">apply</text>
  <text x="116" y="220" fill="#6A7870">(</text>
  <text x="124" y="220" fill="#2A2218">colors</text>
  <text x="172" y="220" fill="#6A7870">.</text>
  <text x="180" y="220" fill="#2A2218">dark</text>
  <text x="212" y="220" fill="#6A7870">)</text>

  <text x="12" y="240" class="line-nr">10</text>
  <text x="60" y="240" fill="#962818">elseif</text>
  <text x="108" y="240" fill="#2A2218"> variant </text>
  <text x="176" y="240" fill="#A06858">==</text>
  <text x="198" y="240" fill="#7A5800"> "light"</text>
  <text x="258" y="240" fill="#962818"> then</text>

  <text x="12" y="260" class="line-nr">11</text>
  <text x="76" y="260" fill="#5A7888">apply</text>
  <text x="116" y="260" fill="#6A7870">(</text>
  <text x="124" y="260" fill="#2A2218">colors</text>
  <text x="172" y="260" fill="#6A7870">.</text>
  <text x="180" y="260" fill="#2A2218">light</text>
  <text x="220" y="260" fill="#6A7870">)</text>

  <text x="12" y="280" class="line-nr">12</text>
  <text x="60" y="280" fill="#962818">end</text>

  <text x="12" y="300" class="line-nr">13</text>
  <text x="44" y="300" fill="#962818">end</text>

  <text x="12" y="320" class="line-nr">14</text>

  <text x="12" y="340" class="line-nr">15</text>
  <text x="44" y="340" fill="#962818">return</text>
  <text x="90" y="340" fill="#2A2218"> M</text>

  <!-- Cursor line highlight -->
  <rect x="36" y="109" width="604" height="18" fill="#E4DED6" opacity="0.6"/>
  <text x="12" y="120" style="fill:#B87800" font-family="'SF Mono', 'Fira Code', 'JetBrains Mono', Menlo, Consolas, monospace" font-size="13">4</text>
</svg>
